<svg xmlns="http://www.w3.org/2000/svg" xmlns:xlink="http://www.w3.org/1999/xlink" id="Layer_1" x="0" y="0" version="1.1" viewBox="0 0 300.2 300.2" xml:space="preserve" style="enable-background:new 0 0 300.2 300.2"><style type="text/css">.st25{fill:#e80c7a}.st26{fill:#f0f}.st27{fill:#ac0ce8}.st28{fill:#7b0dff}.st29{fill:#7f267f}.st30{fill:#c0c}.st31{fill:#ff4cff}.st33{fill:#682547}.st34{fill:#b5095f}.st35{fill:#7f2d2d}.st36{fill:#cc0a0a}.st37{fill:#522d7f}.st38{fill:#620acc}.st39{fill:#562568}.st40{fill:#8609b5}.st42{fill:#a559ff}.st44{fill:#c253ec}.st46{fill:#ec539f}</style><g><polygon points="150.1 26.1 150.1 88.1 96.4 57.1" class="st42"/><polygon points="203.8 57.1 150.1 88.1 150.1 26.1" class="st28"/><polygon points="203.8 57.1 203.8 119.1 150.1 88.1" class="st37"/><polygon points="257.5 88.1 203.8 119.1 203.8 57.1" class="st38"/><polygon points="96.4 57.1 96.4 119.1 42.7 88.1" class="st39"/><polygon points="150.1 88.1 96.4 119.1 96.4 57.1" class="st40"/><polygon points="257.5 88.1 257.5 150.1 203.8 119.1" class="st35"/><polygon points="96.4 119.1 42.7 150.1 42.7 88.1" class="st27"/><polygon points="257.5 150.1 203.8 181.1 203.8 119.1" class="st36"/><polygon points="257.5 150.1 257.5 212.1 203.8 181.1" class="st46"/><polygon points="96.4 119.1 96.4 181.1 42.7 150.1" class="st44"/><polygon points="96.4 181.1 42.7 212.1 42.7 150.1" class="st30"/><polygon points="150.1 212.1 150.1 274.1 96.4 243.1" class="st31"/><polygon points="203.8 243.1 150.1 274.1 150.1 212.1" class="st34"/><polygon points="203.8 181.1 203.8 243.1 150.1 212.1" class="st33"/><polygon points="257.5 212.1 203.8 243.1 203.8 181.1" class="st25"/><polygon points="96.4 181.1 96.4 243.1 42.7 212.1" class="st29"/><polygon points="150.1 212.1 96.4 243.1 96.4 181.1" class="st26"/></g></svg>